<svg id="Component_112_18" data-name="Component 112 – 18" xmlns="http://www.w3.org/2000/svg" width="20" height="20"
  viewBox="0 0 20 20">
  <rect id="Rectangle_33339" data-name="Rectangle 33339" width="20" height="20" fill="none" />
  <path id="list-bullet"
    d="M9.944,5.278h7.778a.778.778,0,0,1,0,1.556H9.944a.778.778,0,0,1,0-1.556Zm0,5.444h7.778a.778.778,0,0,1,0,1.556H9.944a.778.778,0,0,1,0-1.556Zm0,5.444h7.778a.778.778,0,0,1,0,1.556H9.944a.778.778,0,1,1,0-1.556ZM6.056,7.611A1.556,1.556,0,1,1,7.611,6.056,1.556,1.556,0,0,1,6.056,7.611Zm0,5.444A1.556,1.556,0,1,1,7.611,11.5,1.556,1.556,0,0,1,6.056,13.056Zm0,5.444a1.556,1.556,0,1,1,1.556-1.556A1.556,1.556,0,0,1,6.056,18.5Z"
    transform="translate(-1.5 -1.5)" fill="#008810" fill-rule="evenodd" />
</svg>