<svg width="40" height="40" viewBox="0 0 40 40" fill="none" xmlns="http://www.w3.org/2000/svg">
    <path
        d="M23.5134 5.13433H22.5134V5.1842L22.5184 5.23383L23.5134 5.13433ZM23.5134 5.13431H24.5134V5.08443L24.5085 5.0348L23.5134 5.13431ZM23.6566 6.56654L22.6616 6.66605V6.66605L23.6566 6.56654ZM24.4545 9.24583L24.8372 8.32195L24.8372 8.32195L24.4545 9.24583ZM26.9132 7.91545L26.28 7.14149L26.9132 7.91545ZM28.0272 7.00402L28.6604 7.77798V7.77798L28.0272 7.00402ZM29.4106 6.20614L29.4605 5.20739L29.4106 6.20614ZM30.7079 7.13772L30.0008 7.84483L30.7079 7.13772ZM32.8622 9.29207L32.1551 9.99918V9.99918L32.8622 9.29207ZM32.9959 11.9728L32.222 11.3395L32.9959 11.9728ZM32.0844 13.0868L31.3105 12.4535L32.0844 13.0868ZM33.4333 16.3433L33.3338 17.3384L33.4333 16.3433ZM34.8657 16.4866L34.9652 15.4915V15.4915L34.8657 16.4866ZM36.4081 16.9006L35.6667 17.5717L35.6667 17.5717L36.4081 16.9006ZM36.4081 23.0994L35.6667 22.4283L35.6667 22.4284L36.4081 23.0994ZM34.8657 23.5134L34.9652 24.5085H34.9652L34.8657 23.5134ZM33.434 23.6566L33.5335 24.6516L33.434 23.6566ZM32.0851 26.9132L32.859 26.2799L32.0851 26.9132ZM32.996 28.0265L33.77 27.3933V27.3933L32.996 28.0265ZM29.4107 33.7931L29.4605 34.7919H29.4605L29.4107 33.7931ZM28.0272 32.9952L28.6605 32.2213H28.6605L28.0272 32.9952ZM26.9133 32.0838L27.5465 31.3099L26.9133 32.0838ZM23.6567 33.4327L22.6617 33.3332V33.3332L23.6567 33.4327ZM23.5134 34.8657L24.5085 34.9652V34.9652L23.5134 34.8657ZM23.0993 36.4081L22.4283 35.6667L22.4283 35.6667L23.0993 36.4081ZM16.9006 36.4081L17.5716 35.6667L17.5716 35.6667L16.9006 36.4081ZM16.4866 34.8657L15.4915 34.9652L16.4866 34.8657ZM16.3433 33.4334L15.3483 33.5329L16.3433 33.4334ZM13.0868 32.0845L12.4535 31.3105H12.4535L13.0868 32.0845ZM11.9727 32.996L12.6059 33.77L11.9727 32.996ZM9.29199 32.8623L8.58488 33.5694L9.29199 32.8623ZM7.13764 30.7079L7.84474 30.0008L7.13764 30.7079ZM6.20606 29.4107L5.2073 29.4605H5.2073L6.20606 29.4107ZM7.00394 28.0273L7.77789 28.6605H7.77789L7.00394 28.0273ZM7.91543 26.9132L7.14147 26.28L7.14147 26.28L7.91543 26.9132ZM6.56653 23.6567L6.46702 24.6517H6.46702L6.56653 23.6567ZM5.13432 23.5134L5.23383 22.5184L5.1842 22.5134H5.13432V23.5134ZM5.1343 23.5134L5.0348 24.5085L5.08443 24.5134H5.1343V23.5134ZM3.59188 23.0993L4.33333 22.4283L3.59188 23.0993ZM3.33333 21.5234H2.33333H3.33333ZM3.33333 18.4766H4.33333H3.33333ZM3.59188 16.9006L2.85042 16.2296L2.85042 16.2296L3.59188 16.9006ZM5.13432 16.4866L5.03482 15.4915L5.03482 15.4915L5.13432 16.4866ZM6.56715 16.3433L6.66666 17.3383H6.66666L6.56715 16.3433ZM7.91606 13.0867L7.1421 13.72L7.1421 13.72L7.91606 13.0867ZM7.00401 11.972L7.77797 11.3388L7.77797 11.3388L7.00401 11.972ZM6.20614 10.5885L7.2049 10.6383V10.6383L6.20614 10.5885ZM7.13771 9.29132L7.84482 9.99843L7.84482 9.99842L7.13771 9.29132ZM9.29207 7.13696L8.58496 6.42986L8.58496 6.42986L9.29207 7.13696ZM10.5893 6.20539L10.5395 5.20663H10.5395L10.5893 6.20539ZM11.9728 7.00326L12.606 6.22931L12.606 6.22931L11.9728 7.00326ZM13.0869 7.9148L12.4536 8.68876L13.0869 7.9148ZM16.3434 6.56589L17.3384 6.6654V6.6654L16.3434 6.56589ZM16.4866 5.13433L15.4915 5.03482V5.03482L16.4866 5.13433ZM16.9006 3.59188L16.2296 2.85043L16.2296 2.85043L16.9006 3.59188ZM23.0993 3.59188L22.4283 4.33333L23.0993 3.59188ZM24.5134 5.13433V5.13431H22.5134V5.13433H24.5134ZM24.6517 6.46704L24.5085 5.03482L22.5184 5.23383L22.6616 6.66605L24.6517 6.46704ZM24.8372 8.32195C25.0111 8.39398 24.9665 8.53559 24.8793 8.18892C24.7917 7.84084 24.7367 7.31761 24.6517 6.46704L22.6616 6.66605C22.7399 7.44901 22.8074 8.15094 22.9397 8.67687C23.0724 9.20421 23.3451 9.8687 24.0718 10.1697L24.8372 8.32195ZM26.28 7.14149C25.6184 7.6828 25.2095 8.01389 24.9015 8.1981C24.5947 8.38156 24.6633 8.24993 24.8372 8.32195L24.0718 10.1697C24.7985 10.4707 25.4612 10.1937 25.9279 9.91461C26.3933 9.63628 26.9374 9.18768 27.5464 8.68941L26.28 7.14149ZM27.3939 6.23006L26.28 7.14149L27.5464 8.68941L28.6604 7.77798L27.3939 6.23006ZM29.4605 5.20739C28.9857 5.18371 28.6013 5.35418 28.2951 5.54507C28.0132 5.72084 27.7061 5.97463 27.3939 6.23006L28.6604 7.77798C29.014 7.48869 29.2062 7.33395 29.3534 7.24217C29.4763 7.16549 29.4508 7.20939 29.3608 7.2049L29.4605 5.20739ZM31.415 6.43061C31.1297 6.14539 30.8494 5.8623 30.5864 5.65934C30.3008 5.43895 29.9352 5.23107 29.4605 5.20739L29.3608 7.2049C29.2709 7.20042 29.2498 7.15419 29.3646 7.24273C29.5019 7.3487 29.6777 7.52179 30.0008 7.84483L31.415 6.43061ZM33.5693 8.58497L31.415 6.43061L30.0008 7.84483L32.1551 9.99918L33.5693 8.58497ZM34.7925 10.5395C34.7689 10.0647 34.561 9.69915 34.3406 9.41354C34.1376 9.15054 33.8545 8.87019 33.5693 8.58497L32.1551 9.99918C32.4781 10.3222 32.6512 10.4981 32.7572 10.6354C32.8457 10.7501 32.7995 10.729 32.795 10.6391L34.7925 10.5395ZM33.7699 12.606C34.0253 12.2938 34.2791 11.9867 34.4549 11.7048C34.6458 11.3987 34.8162 11.0142 34.7925 10.5395L32.795 10.6391C32.7905 10.5492 32.8344 10.5236 32.7578 10.6466C32.666 10.7938 32.5112 10.986 32.222 11.3395L33.7699 12.606ZM32.8584 13.72L33.7699 12.606L32.222 11.3395L31.3105 12.4535L32.8584 13.72ZM31.6779 15.1628C31.75 15.3367 31.6183 15.4053 31.8018 15.0985C31.986 14.7905 32.3171 14.3816 32.8584 13.72L31.3105 12.4535C30.8122 13.0626 30.3636 13.6066 30.0853 14.0721C29.8062 14.5388 29.5292 15.2015 29.8302 15.9282L31.6779 15.1628ZM33.5329 15.3483C32.6823 15.2632 32.1591 15.2082 31.811 15.1207C31.4643 15.0335 31.6059 14.9889 31.6779 15.1628L29.8302 15.9282C30.1312 16.6549 30.7957 16.9276 31.323 17.0602C31.849 17.1926 32.5509 17.2601 33.3338 17.3384L33.5329 15.3483ZM34.9652 15.4915L33.5329 15.3483L33.3338 17.3384L34.7662 17.4816L34.9652 15.4915ZM37.1496 16.2296C36.8306 15.8772 36.4382 15.7259 36.0868 15.6444C35.7632 15.5694 35.3665 15.5317 34.9652 15.4915L34.7662 17.4816C35.2207 17.5271 35.4661 17.5535 35.635 17.5927C35.7762 17.6255 35.7271 17.6384 35.6667 17.5717L37.1496 16.2296ZM37.6667 18.4766C37.6667 18.0733 37.6686 17.6749 37.6261 17.3454C37.58 16.9876 37.4685 16.5821 37.1496 16.2296L35.6667 17.5717C35.6062 17.5049 35.624 17.4573 35.6425 17.601C35.6647 17.7731 35.6667 18.0198 35.6667 18.4766H37.6667ZM37.6667 21.5234V18.4766H35.6667V21.5234H37.6667ZM37.1496 23.7704C37.4685 23.4179 37.58 23.0124 37.6261 22.6546C37.6686 22.3251 37.6667 21.9267 37.6667 21.5234H35.6667C35.6667 21.9802 35.6647 22.2269 35.6425 22.399C35.624 22.5427 35.6062 22.4951 35.6667 22.4283L37.1496 23.7704ZM34.9652 24.5085C35.3665 24.4683 35.7632 24.4306 36.0868 24.3556C36.4382 24.2741 36.8306 24.1228 37.1496 23.7704L35.6667 22.4284C35.7271 22.3616 35.7762 22.3745 35.635 22.4073C35.4661 22.4465 35.2207 22.4729 34.7662 22.5184L34.9652 24.5085ZM33.5335 24.6516L34.9652 24.5085L34.7662 22.5184L33.3345 22.6616L33.5335 24.6516ZM31.6786 24.8371C31.6065 25.011 31.4649 24.9665 31.8116 24.8793C32.1597 24.7917 32.6829 24.7367 33.5335 24.6516L33.3345 22.6616C32.5515 22.7399 31.8496 22.8074 31.3237 22.9397C30.7963 23.0724 30.1318 23.3451 29.8308 24.0718L31.6786 24.8371ZM32.859 26.2799C32.3177 25.6183 31.9866 25.2095 31.8024 24.9014C31.619 24.5946 31.7506 24.6632 31.6786 24.8371L29.8308 24.0718C29.5298 24.7985 29.8068 25.4612 30.0859 25.9279C30.3642 26.3933 30.8128 26.9374 31.3111 27.5464L32.859 26.2799ZM33.77 27.3933L32.859 26.2799L31.3111 27.5464L32.222 28.6597L33.77 27.3933ZM34.7926 29.4598C34.8163 28.985 34.6458 28.6006 34.4549 28.2945C34.2792 28.0126 34.0254 27.7055 33.77 27.3933L32.222 28.6597C32.5113 29.0133 32.6661 29.2055 32.7578 29.3527C32.8345 29.4757 32.7906 29.4501 32.7951 29.3602L34.7926 29.4598ZM33.5694 31.4143C33.8546 31.1291 34.1377 30.8487 34.3407 30.5857C34.5611 30.3001 34.7689 29.9345 34.7926 29.4598L32.7951 29.3602C32.7996 29.2702 32.8458 29.2491 32.7573 29.3639C32.6513 29.5012 32.4782 29.6771 32.1552 30.0001L33.5694 31.4143ZM31.415 33.5687L33.5694 31.4143L32.1552 30.0001L30.0008 32.1544L31.415 33.5687ZM29.4605 34.7919C29.9353 34.7682 30.3009 34.5603 30.5865 34.3399C30.8495 34.137 31.1298 33.8539 31.415 33.5687L30.0008 32.1544C29.6778 32.4775 29.502 32.6506 29.3646 32.7565C29.2499 32.8451 29.271 32.7988 29.3609 32.7944L29.4605 34.7919ZM27.394 33.7692C27.7062 34.0246 28.0133 34.2784 28.2952 34.4542C28.6013 34.6451 28.9858 34.8156 29.4605 34.7919L29.3609 32.7944C29.4508 32.7899 29.4764 32.8338 29.3534 32.7571C29.2063 32.6653 29.0141 32.5106 28.6605 32.2213L27.394 33.7692ZM26.28 32.8578L27.394 33.7692L28.6605 32.2213L27.5465 31.3099L26.28 32.8578ZM24.8372 31.6773C24.6634 31.7493 24.5947 31.6177 24.9015 31.8012C25.2096 31.9854 25.6184 32.3165 26.28 32.8578L27.5465 31.3099C26.9375 30.8116 26.3934 30.363 25.928 30.0847C25.4613 29.8056 24.7986 29.5285 24.0719 29.8295L24.8372 31.6773ZM24.6518 33.5322C24.7368 32.6816 24.7918 32.1584 24.8794 31.8103C24.9666 31.4637 25.0111 31.6053 24.8372 31.6773L24.0719 29.8295C23.3452 30.1306 23.0725 30.795 22.9398 31.3224C22.8075 31.8483 22.74 32.5502 22.6617 33.3332L24.6518 33.5322ZM24.5085 34.9652L24.6518 33.5322L22.6617 33.3332L22.5184 34.7662L24.5085 34.9652ZM23.7703 37.1496C24.1228 36.8306 24.2741 36.4382 24.3556 36.0868C24.4306 35.7632 24.4683 35.3665 24.5085 34.9652L22.5184 34.7662C22.4729 35.2207 22.4464 35.4661 22.4073 35.635C22.3745 35.7762 22.3616 35.7271 22.4283 35.6667L23.7703 37.1496ZM21.5234 37.6667C21.9267 37.6667 22.3251 37.6686 22.6546 37.6261C23.0124 37.58 23.4179 37.4685 23.7704 37.1496L22.4283 35.6667C22.4951 35.6063 22.5427 35.624 22.399 35.6425C22.2269 35.6647 21.9802 35.6667 21.5234 35.6667V37.6667ZM18.4766 37.6667H21.5234V35.6667H18.4766V37.6667ZM16.2296 37.1496C16.5821 37.4685 16.9876 37.58 17.3454 37.6261C17.6749 37.6686 18.0733 37.6667 18.4766 37.6667V35.6667C18.0198 35.6667 17.7731 35.6647 17.601 35.6425C17.4573 35.624 17.5049 35.6063 17.5716 35.6667L16.2296 37.1496ZM15.4915 34.9652C15.5317 35.3665 15.5694 35.7632 15.6444 36.0868C15.7259 36.4382 15.8772 36.8306 16.2296 37.1496L17.5716 35.6667C17.6384 35.7271 17.6255 35.7762 17.5927 35.635C17.5535 35.4661 17.5271 35.2207 17.4816 34.7662L15.4915 34.9652ZM15.3483 33.5329L15.4915 34.9652L17.4816 34.7662L17.3384 33.3339L15.3483 33.5329ZM15.1628 31.678C14.9889 31.6059 15.0335 31.4643 15.1207 31.811C15.2082 32.1591 15.2632 32.6823 15.3483 33.5329L17.3384 33.3339C17.2601 32.5509 17.1925 31.849 17.0602 31.323C16.9276 30.7957 16.6549 30.1312 15.9282 29.8302L15.1628 31.678ZM13.72 32.8584C14.3816 32.3171 14.7905 31.986 15.0985 31.8018C15.4053 31.6184 15.3367 31.75 15.1628 31.678L15.9282 29.8302C15.2015 29.5292 14.5388 29.8062 14.0721 30.0853C13.6066 30.3636 13.0625 30.8122 12.4535 31.3105L13.72 32.8584ZM12.6059 33.77L13.72 32.8584L12.4535 31.3105L11.3394 32.222L12.6059 33.77ZM10.5394 34.7926C11.0142 34.8163 11.3986 34.6458 11.7047 34.455C11.9866 34.2792 12.2937 34.0254 12.6059 33.77L11.3394 32.222C10.9859 32.5113 10.7937 32.6661 10.6465 32.7578C10.5235 32.8345 10.5491 32.7906 10.639 32.7951L10.5394 34.7926ZM8.58488 33.5694C8.87011 33.8546 9.15045 34.1377 9.41346 34.3407C9.69907 34.5611 10.0646 34.769 10.5394 34.7926L10.639 32.7951C10.7289 32.7996 10.75 32.8458 10.6353 32.7573C10.498 32.6513 10.3221 32.4782 9.9991 32.1552L8.58488 33.5694ZM6.43053 31.4151L8.58488 33.5694L9.9991 32.1552L7.84474 30.0008L6.43053 31.4151ZM5.2073 29.4605C5.23098 29.9353 5.43887 30.3009 5.65926 30.5865C5.86221 30.8495 6.14531 31.1298 6.43053 31.4151L7.84474 30.0008C7.52171 29.6778 7.34861 29.502 7.24264 29.3646C7.15411 29.2499 7.20034 29.271 7.20482 29.3609L5.2073 29.4605ZM6.22998 27.394C5.97455 27.7062 5.72076 28.0133 5.54498 28.2952C5.3541 28.6013 5.18362 28.9858 5.2073 29.4605L7.20482 29.3609C7.20931 29.4508 7.16541 29.4764 7.24209 29.3535C7.33387 29.2063 7.48861 29.0141 7.77789 28.6605L6.22998 27.394ZM7.14147 26.28L6.22998 27.394L7.77789 28.6605L8.68939 27.5464L7.14147 26.28ZM8.32194 24.8372C8.24991 24.6633 8.38154 24.5947 8.19808 24.9015C8.01387 25.2095 7.68278 25.6184 7.14147 26.28L8.68939 27.5464C9.18766 26.9374 9.63626 26.3934 9.91459 25.9279C10.1937 25.4612 10.4707 24.7985 10.1697 24.0718L8.32194 24.8372ZM6.46702 24.6517C7.3176 24.7367 7.84082 24.7917 8.18891 24.8793C8.53557 24.9665 8.39396 25.0111 8.32194 24.8372L10.1697 24.0718C9.86868 23.3451 9.2042 23.0724 8.67685 22.9397C8.15092 22.8074 7.44899 22.7399 6.66603 22.6616L6.46702 24.6517ZM5.03482 24.5085L6.46702 24.6517L6.66603 22.6616L5.23383 22.5184L5.03482 24.5085ZM5.1343 24.5134H5.13432V22.5134H5.1343V24.5134ZM2.85042 23.7704C3.16938 24.1228 3.56176 24.2741 3.91319 24.3556C4.23682 24.4306 4.63344 24.4683 5.0348 24.5085L5.23381 22.5184C4.77925 22.4729 4.53393 22.4465 4.36495 22.4073C4.22379 22.3745 4.27292 22.3616 4.33333 22.4283L2.85042 23.7704ZM2.33333 21.5234C2.33333 21.9267 2.33139 22.3251 2.37385 22.6546C2.41996 23.0124 2.53146 23.4179 2.85042 23.7704L4.33333 22.4283C4.39374 22.4951 4.37597 22.5427 4.35744 22.399C4.33527 22.2269 4.33333 21.9802 4.33333 21.5234H2.33333ZM2.33333 18.4766L2.33333 21.5234H4.33333L4.33333 18.4766H2.33333ZM2.85042 16.2296C2.53146 16.5821 2.41996 16.9876 2.37385 17.3454C2.33139 17.6749 2.33333 18.0733 2.33333 18.4766H4.33333C4.33333 18.0198 4.33527 17.7731 4.35744 17.601C4.37597 17.4573 4.39374 17.5049 4.33333 17.5717L2.85042 16.2296ZM5.03482 15.4915C4.63345 15.5317 4.23683 15.5694 3.9132 15.6444C3.56177 15.7259 3.16938 15.8772 2.85042 16.2296L4.33333 17.5717C4.27291 17.6384 4.22379 17.6255 4.36496 17.5927C4.53394 17.5535 4.77926 17.5271 5.23382 17.4816L5.03482 15.4915ZM6.46765 15.3482L5.03482 15.4915L5.23382 17.4816L6.66666 17.3383L6.46765 15.3482ZM8.32256 15.1628C8.39459 14.9889 8.5362 15.0334 8.18953 15.1206C7.84145 15.2082 7.31822 15.2632 6.46765 15.3482L6.66666 17.3383C7.44962 17.26 8.15155 17.1925 8.67748 17.0602C9.20482 16.9275 9.86931 16.6548 10.1703 15.9281L8.32256 15.1628ZM7.1421 13.72C7.6834 14.3816 8.01449 14.7904 8.19871 15.0985C8.38217 15.4053 8.25054 15.3366 8.32256 15.1628L10.1703 15.9281C10.4713 15.2014 10.1943 14.5387 9.91522 14.072C9.63688 13.6066 9.18829 13.0625 8.69002 12.4535L7.1421 13.72ZM6.23005 12.6052L7.1421 13.72L8.69002 12.4535L7.77797 11.3388L6.23005 12.6052ZM5.20738 10.5387C5.1837 11.0135 5.35418 11.3979 5.54506 11.704C5.72084 11.9859 5.97463 12.2931 6.23006 12.6052L7.77797 11.3388C7.48868 10.9852 7.33394 10.793 7.24216 10.6458C7.16549 10.5228 7.20938 10.5484 7.2049 10.6383L5.20738 10.5387ZM6.43061 8.58421C6.14538 8.86943 5.86229 9.14978 5.65934 9.41279C5.43894 9.69839 5.23106 10.064 5.20738 10.5387L7.2049 10.6383C7.20041 10.7283 7.15419 10.7494 7.24272 10.6346C7.34869 10.4973 7.52179 10.3215 7.84482 9.99843L6.43061 8.58421ZM8.58496 6.42986L6.43061 8.58421L7.84482 9.99842L9.99917 7.84407L8.58496 6.42986ZM10.5395 5.20663C10.0647 5.23031 9.69914 5.43819 9.41354 5.65859C9.15053 5.86154 8.87018 6.14463 8.58496 6.42986L9.99917 7.84407C10.3222 7.52104 10.498 7.34794 10.6354 7.24197C10.7501 7.15344 10.729 7.19966 10.6391 7.20415L10.5395 5.20663ZM12.606 6.22931C12.2938 5.97388 11.9867 5.72009 11.7048 5.54431C11.3987 5.35343 11.0142 5.18295 10.5395 5.20663L10.6391 7.20415C10.5492 7.20863 10.5236 7.16474 10.6466 7.24141C10.7938 7.33319 10.9859 7.48794 11.3395 7.77722L12.606 6.22931ZM13.7201 7.14084L12.606 6.22931L11.3395 7.77722L12.4536 8.68876L13.7201 7.14084ZM15.1629 8.3213C15.3368 8.24927 15.4054 8.38091 15.0986 8.19745C14.7905 8.01323 14.3817 7.68214 13.7201 7.14084L12.4536 8.68876C13.0626 9.18703 13.6067 9.63562 14.0721 9.91395C14.5388 10.193 15.2015 10.4701 15.9282 10.1691L15.1629 8.3213ZM15.3484 6.46639C15.2633 7.31696 15.2083 7.84019 15.1207 8.18827C15.0335 8.53494 14.989 8.39333 15.1629 8.3213L15.9282 10.1691C16.6549 9.86805 16.9276 9.20356 17.0603 8.67622C17.1926 8.15029 17.2601 7.44836 17.3384 6.6654L15.3484 6.46639ZM15.4915 5.03482L15.3484 6.46639L17.3384 6.6654L17.4816 5.23383L15.4915 5.03482ZM16.2296 2.85043C15.8772 3.16939 15.7259 3.56177 15.6444 3.91321C15.5694 4.23683 15.5317 4.63346 15.4915 5.03482L17.4816 5.23383C17.5271 4.77926 17.5535 4.53394 17.5927 4.36496C17.6255 4.22379 17.6384 4.27292 17.5716 4.33333L16.2296 2.85043ZM18.4766 2.33333C18.0733 2.33333 17.6749 2.33139 17.3454 2.37386C16.9876 2.41997 16.5821 2.53147 16.2296 2.85043L17.5716 4.33333C17.5049 4.39375 17.4573 4.37597 17.601 4.35745C17.7731 4.33528 18.0198 4.33333 18.4766 4.33333V2.33333ZM21.5234 2.33333H18.4766V4.33333H21.5234V2.33333ZM23.7703 2.85043C23.4179 2.53147 23.0124 2.41997 22.6546 2.37386C22.3251 2.33139 21.9267 2.33333 21.5234 2.33333V4.33333C21.9802 4.33333 22.2269 4.33528 22.399 4.35745C22.5427 4.37597 22.4951 4.39375 22.4283 4.33333L23.7703 2.85043ZM24.5085 5.0348C24.4683 4.63344 24.4306 4.23682 24.3556 3.9132C24.2741 3.56177 24.1228 3.16939 23.7703 2.85043L22.4283 4.33333C22.3616 4.27292 22.3745 4.22379 22.4073 4.36496C22.4464 4.53394 22.4729 4.77925 22.5184 5.23381L24.5085 5.0348ZM25.6667 20C25.6667 23.1296 23.1296 25.6667 20 25.6667V27.6667C24.2342 27.6667 27.6667 24.2342 27.6667 20H25.6667ZM20 14.3333C23.1296 14.3333 25.6667 16.8704 25.6667 20H27.6667C27.6667 15.7658 24.2342 12.3333 20 12.3333V14.3333ZM14.3333 20C14.3333 16.8704 16.8704 14.3333 20 14.3333V12.3333C15.7658 12.3333 12.3333 15.7658 12.3333 20H14.3333ZM20 25.6667C16.8704 25.6667 14.3333 23.1296 14.3333 20H12.3333C12.3333 24.2342 15.7658 27.6667 20 27.6667V25.6667Z"
        fill="#52555a" />
</svg>